<?xml version="1.0" encoding="UTF-8"?>
<svg width="408px" height="900px" viewBox="0 0 408 900" version="1.1" xmlns="http://www.w3.org/2000/svg" xmlns:xlink="http://www.w3.org/1999/xlink">
    <!-- Generator: Sketch 64 (93537) - https://sketch.com -->
    <title>Rocket</title>
    <desc>Created with Sketch.</desc>
    <defs>
        <linearGradient x1="42.7058013%" y1="0%" x2="60.2755556%" y2="79.1056384%" id="linearGradient-1">
            <stop stop-color="#F09819" offset="0%"></stop>
            <stop stop-color="#FF5858" offset="100%"></stop>
        </linearGradient>
    </defs>
    <g id="Page-1" stroke="none" stroke-width="1" fill="none" fill-rule="evenodd">
        <g id="logo-new" transform="translate(-308.000000, -51.000000)" fill="url(#linearGradient-1)">
            <g id="Rocket" transform="translate(308.000000, 51.000000)">
                <path d="M205.63086,0.999760373 C207.286414,1.83354027 208.658572,3.13808351 209.574876,4.74942865 C302.082792,167.427063 361.459904,296.385949 387.70621,391.626088 C413.73956,486.093468 414.725766,650.372991 390.664827,884.464655 L389.928041,891.579711 C389.389275,896.744399 384.765711,900.494449 379.601023,899.955683 C377.349172,899.720776 375.257707,898.681196 373.710862,897.027931 C310.726117,829.709962 253.068958,796.050977 200.739385,796.050977 C149.264976,796.050977 95.2679653,828.618847 38.7483525,893.754587 L37.034865,895.738366 C33.6494244,899.675759 27.7130949,900.123205 23.775702,896.737765 C21.9881756,895.200818 20.8432354,893.048453 20.5677596,890.707178 C-7.70055103,650.4542 -6.82990578,484.093836 23.1796953,391.626088 C52.8490107,300.206852 108.627404,173.036807 190.514875,10.1159525 L193.004304,5.16801312 C195.34,0.530254637 200.993102,-1.33593569 205.63086,0.999760373 Z M204.017259,378.693896 C164.077486,378.693896 131.699902,411.06492 131.699902,450.996602 C131.699902,490.928284 164.077486,523.299308 204.017259,523.299308 C243.957033,523.299308 276.334616,490.928284 276.334616,450.996602 C276.334616,411.06492 243.957033,378.693896 204.017259,378.693896 Z" id="Combined-Shape"></path>
            </g>
        </g>
    </g>
</svg>